<?xml version="1.0" encoding="iso-8859-1"?>
<!-- Generator: Adobe Illustrator 17.1.0, SVG Export Plug-In . SVG Version: 6.00 Build 0)  -->
<!DOCTYPE svg PUBLIC "-//W3C//DTD SVG 1.1//EN" "http://www.w3.org/Graphics/SVG/1.1/DTD/svg11.dtd">
<svg version="1.1" id="Capa_1" xmlns="http://www.w3.org/2000/svg" xmlns:xlink="http://www.w3.org/1999/xlink" x="0px" y="0px"
	 viewBox="0 0 328 328" style="enable-background:new 0 0 328 328;" xml:space="preserve">
<g>
	<path d="M173,258h-19c-8.284,0-15,6.716-15,15v40c0,8.284,6.716,15,15,15h19c8.284,0,15-6.716,15-15v-40
		C188,264.716,181.284,258,173,258z"/>
	<path d="M173,0h-19c-8.284,0-15,6.716-15,15v40c0,8.284,6.716,15,15,15h19c8.284,0,15-6.716,15-15V15C188,6.716,181.284,0,173,0z"
		/>
	<path d="M90.834,223.536c-5.834-5.834-15.38-5.834-21.213,0l-28.457,28.457c-5.834,5.834-5.834,15.38,0,21.213l13.63,13.63
		c5.834,5.834,15.38,5.834,21.213,0l28.457-28.457c5.834-5.834,5.834-15.38,0-21.213L90.834,223.536z"/>
	<path d="M237.166,104.464c5.834,5.834,15.38,5.834,21.213,0l28.457-28.457c5.834-5.834,5.834-15.38,0-21.213l-13.63-13.63
		c-5.834-5.834-15.38-5.834-21.213,0l-28.457,28.457c-5.834,5.834-5.834,15.38,0,21.213L237.166,104.464z"/>
	<path d="M70,173v-19c0-8.284-6.716-15-15-15H15c-8.284,0-15,6.716-15,15v19c0,8.284,6.716,15,15,15h40
		C63.284,188,70,181.284,70,173z"/>
	<path d="M313,139h-40c-8.284,0-15,6.716-15,15v19c0,8.284,6.716,15,15,15h40c8.284,0,15-6.716,15-15v-19
		C328,145.716,321.284,139,313,139z"/>
	<path d="M76.007,41.164c-5.834-5.834-15.38-5.834-21.213,0l-13.63,13.63c-5.834,5.834-5.834,15.38,0,21.213l28.457,28.457
		c5.834,5.834,15.38,5.834,21.213,0l13.63-13.63c5.834-5.834,5.834-15.38,0-21.213L76.007,41.164z"/>
	<path d="M258.379,223.536c-5.834-5.834-15.38-5.834-21.213,0l-13.63,13.63c-5.834,5.834-5.834,15.38,0,21.213l28.457,28.457
		c5.834,5.834,15.38,5.834,21.213,0l13.63-13.63c5.834-5.834,5.834-15.38,0-21.213L258.379,223.536z"/>
</g>
<g>
</g>
<g>
</g>
<g>
</g>
<g>
</g>
<g>
</g>
<g>
</g>
<g>
</g>
<g>
</g>
<g>
</g>
<g>
</g>
<g>
</g>
<g>
</g>
<g>
</g>
<g>
</g>
<g>
</g>
</svg>
